# xmcd
#
# Track frame offsets: 
#        150
#        14865
#        30505
#        51580
#        68280
#        81582
#        100995
#        113492
#        129340
#        143752
#        156617
#        172530
#        185815
#        199025
#        215892
#        229312
#
# Disc length: 3342 seconds
#
# Revision: 9
# Processed by: cddbd v1.5.2PL0 Copyright (c) Steve Scherf et al.
# Submitted via: ExactAudioCopyFreeDBPlugin 1.0
#
DISCID=e70d0c10
DTITLE=Altan - The Best of Altan  CD1
DYEAR=1997
DGENRE=Celtic
TTITLE0=Tommy Peoples - The Windmill - Fintan McManus's (reels)
TTITLE1=Moll Dubh A' Ghleanna
TTITLE2=Jimmy Lyon's - The Teelin - The Red Crow - The Broken Bridge (hig
TTITLE2=hlands and reels)
TTITLE3=The Sunset (slow reel)
TTITLE4=Glory Reel - The Heathery Cruach (reels)
TTITLE5=The Flower Of Magherally
TTITLE6=Mazurka
TTITLE7=A Bhean Udai Thall
TTITLE8=King Of The Pipers (jig)
TTITLE9='Si Do Mhaimeo Í
TTITLE10=The Jug Of Punch
TTITLE11=The Emyvale - Ril Gan Ainm - The Three Merry Sisters of Fate (r
TTITLE11=eels)
TTITLE12=An Mhaighdean Mhara
TTITLE13=Dúlamán
TTITLE14=Drowsy Maggie - Rakish Paddy - Harvest Storm (reels)
TTITLE15=An Feochán (air)
EXTD=YEAR: 1997
EXTT0=
EXTT1=
EXTT2=
EXTT3=
EXTT4=
EXTT5=
EXTT6=
EXTT7=
EXTT8=
EXTT9=
EXTT10=
EXTT11=
EXTT12=
EXTT13=
EXTT14=
EXTT15=
PLAYORDER=
